<mxfile host="app.diagrams.net" modified="2021-02-21T10:43:19.001Z" agent="5.0 (Windows NT 10.0; Win64; x64) AppleWebKit/537.36 (KHTML, like Gecko) Chrome/88.0.4324.182 Safari/537.36" etag="HoFCPi4S78qBEe0W2nzq" version="14.4.2" type="github">
  <diagram name="Page-1" id="8ce9d11a-91a2-4d17-14d8-a56ed91bf033">
    <mxGraphModel dx="1308" dy="896" grid="1" gridSize="10" guides="1" tooltips="1" connect="1" arrows="1" fold="1" page="1" pageScale="1" pageWidth="1100" pageHeight="850" background="#ffffff" math="0" shadow="0">
      <root>
        <mxCell id="0" />
        <mxCell id="1" parent="0" />
        <mxCell id="17ea667e15c223fc-28" style="edgeStyle=orthogonalEdgeStyle;rounded=1;html=1;labelBackgroundColor=none;startArrow=none;startFill=0;startSize=5;endArrow=classicThin;endFill=1;endSize=5;jettySize=auto;orthogonalLoop=1;strokeWidth=1;fontFamily=Verdana;fontSize=8" parent="1" source="17ea667e15c223fc-1" target="17ea667e15c223fc-2" edge="1">
          <mxGeometry relative="1" as="geometry" />
        </mxCell>
        <mxCell id="17ea667e15c223fc-1" value="Start" style="shape=hexagon;perimeter=hexagonPerimeter;whiteSpace=wrap;html=1;rounded=0;shadow=0;labelBackgroundColor=none;strokeWidth=1;fontFamily=Verdana;fontSize=12;align=center;" parent="1" vertex="1">
          <mxGeometry x="200" y="145" width="120" height="80" as="geometry" />
        </mxCell>
        <mxCell id="17ea667e15c223fc-29" style="edgeStyle=orthogonalEdgeStyle;rounded=1;html=1;labelBackgroundColor=none;startArrow=none;startFill=0;startSize=5;endArrow=classicThin;endFill=1;endSize=5;jettySize=auto;orthogonalLoop=1;strokeWidth=1;fontFamily=Verdana;fontSize=8;entryX=0.5;entryY=0;entryDx=0;entryDy=0;" parent="1" source="17ea667e15c223fc-2" target="17ea667e15c223fc-11" edge="1">
          <mxGeometry relative="1" as="geometry">
            <mxPoint x="260" y="385" as="targetPoint" />
          </mxGeometry>
        </mxCell>
        <mxCell id="17ea667e15c223fc-2" value="Await New Game Start" style="rounded=1;whiteSpace=wrap;html=1;shadow=0;labelBackgroundColor=none;strokeWidth=1;fontFamily=Verdana;fontSize=12;align=center;" parent="1" vertex="1">
          <mxGeometry x="200" y="265" width="120" height="80" as="geometry" />
        </mxCell>
        <mxCell id="JBzAY3IJUqZfZQGEJmhK-11" value="" style="edgeStyle=orthogonalEdgeStyle;rounded=0;orthogonalLoop=1;jettySize=auto;html=1;" edge="1" parent="1" source="17ea667e15c223fc-11" target="JBzAY3IJUqZfZQGEJmhK-2">
          <mxGeometry relative="1" as="geometry" />
        </mxCell>
        <mxCell id="17ea667e15c223fc-11" value="New Game" style="shape=hexagon;perimeter=hexagonPerimeter;whiteSpace=wrap;html=1;rounded=0;shadow=0;labelBackgroundColor=none;strokeWidth=1;fontFamily=Verdana;fontSize=12;align=center;" parent="1" vertex="1">
          <mxGeometry x="200" y="385" width="120" height="80" as="geometry" />
        </mxCell>
        <mxCell id="JBzAY3IJUqZfZQGEJmhK-19" value="" style="edgeStyle=orthogonalEdgeStyle;rounded=0;orthogonalLoop=1;jettySize=auto;html=1;" edge="1" parent="1" source="17ea667e15c223fc-21" target="JBzAY3IJUqZfZQGEJmhK-9">
          <mxGeometry relative="1" as="geometry" />
        </mxCell>
        <mxCell id="JBzAY3IJUqZfZQGEJmhK-21" style="edgeStyle=orthogonalEdgeStyle;rounded=0;orthogonalLoop=1;jettySize=auto;html=1;" edge="1" parent="1" source="17ea667e15c223fc-21" target="JBzAY3IJUqZfZQGEJmhK-10">
          <mxGeometry relative="1" as="geometry" />
        </mxCell>
        <mxCell id="17ea667e15c223fc-21" value="OR" style="ellipse;whiteSpace=wrap;html=1;rounded=1;shadow=0;labelBackgroundColor=none;strokeWidth=1;fontFamily=Verdana;fontSize=12;align=center;" parent="1" vertex="1">
          <mxGeometry x="620" y="165" width="40" height="40" as="geometry" />
        </mxCell>
        <mxCell id="JBzAY3IJUqZfZQGEJmhK-12" value="" style="edgeStyle=orthogonalEdgeStyle;rounded=0;orthogonalLoop=1;jettySize=auto;html=1;" edge="1" parent="1" source="JBzAY3IJUqZfZQGEJmhK-2" target="JBzAY3IJUqZfZQGEJmhK-3">
          <mxGeometry relative="1" as="geometry" />
        </mxCell>
        <mxCell id="JBzAY3IJUqZfZQGEJmhK-2" value="Load New Game Config" style="rounded=1;whiteSpace=wrap;html=1;shadow=0;labelBackgroundColor=none;strokeWidth=1;fontFamily=Verdana;fontSize=12;align=center;" vertex="1" parent="1">
          <mxGeometry x="200" y="505" width="120" height="80" as="geometry" />
        </mxCell>
        <mxCell id="JBzAY3IJUqZfZQGEJmhK-13" value="" style="edgeStyle=orthogonalEdgeStyle;rounded=0;orthogonalLoop=1;jettySize=auto;html=1;" edge="1" parent="1" source="JBzAY3IJUqZfZQGEJmhK-3" target="JBzAY3IJUqZfZQGEJmhK-8">
          <mxGeometry relative="1" as="geometry" />
        </mxCell>
        <mxCell id="JBzAY3IJUqZfZQGEJmhK-3" value="Start Input/output Listeners" style="rounded=1;whiteSpace=wrap;html=1;shadow=0;labelBackgroundColor=none;strokeWidth=1;fontFamily=Verdana;fontSize=12;align=center;" vertex="1" parent="1">
          <mxGeometry x="200" y="625" width="120" height="80" as="geometry" />
        </mxCell>
        <mxCell id="JBzAY3IJUqZfZQGEJmhK-18" value="" style="edgeStyle=orthogonalEdgeStyle;rounded=0;orthogonalLoop=1;jettySize=auto;html=1;" edge="1" parent="1" source="JBzAY3IJUqZfZQGEJmhK-4" target="17ea667e15c223fc-21">
          <mxGeometry relative="1" as="geometry" />
        </mxCell>
        <mxCell id="JBzAY3IJUqZfZQGEJmhK-4" value="End Loop" style="shape=hexagon;perimeter=hexagonPerimeter;whiteSpace=wrap;html=1;rounded=0;shadow=0;labelBackgroundColor=none;strokeWidth=1;fontFamily=Verdana;fontSize=12;align=center;" vertex="1" parent="1">
          <mxGeometry x="390" y="145" width="120" height="80" as="geometry" />
        </mxCell>
        <mxCell id="JBzAY3IJUqZfZQGEJmhK-15" value="" style="edgeStyle=orthogonalEdgeStyle;rounded=0;orthogonalLoop=1;jettySize=auto;html=1;" edge="1" parent="1" source="JBzAY3IJUqZfZQGEJmhK-5" target="JBzAY3IJUqZfZQGEJmhK-6">
          <mxGeometry relative="1" as="geometry" />
        </mxCell>
        <mxCell id="JBzAY3IJUqZfZQGEJmhK-5" value="Get New Input" style="rounded=1;whiteSpace=wrap;html=1;shadow=0;labelBackgroundColor=none;strokeWidth=1;fontFamily=Verdana;fontSize=12;align=center;" vertex="1" parent="1">
          <mxGeometry x="390" y="505" width="120" height="80" as="geometry" />
        </mxCell>
        <mxCell id="JBzAY3IJUqZfZQGEJmhK-16" value="" style="edgeStyle=orthogonalEdgeStyle;rounded=0;orthogonalLoop=1;jettySize=auto;html=1;" edge="1" parent="1" source="JBzAY3IJUqZfZQGEJmhK-6" target="JBzAY3IJUqZfZQGEJmhK-7">
          <mxGeometry relative="1" as="geometry" />
        </mxCell>
        <mxCell id="JBzAY3IJUqZfZQGEJmhK-6" value="Execute Step Logic" style="rounded=1;whiteSpace=wrap;html=1;shadow=0;labelBackgroundColor=none;strokeWidth=1;fontFamily=Verdana;fontSize=12;align=center;" vertex="1" parent="1">
          <mxGeometry x="390" y="385" width="120" height="80" as="geometry" />
        </mxCell>
        <mxCell id="JBzAY3IJUqZfZQGEJmhK-17" value="" style="edgeStyle=orthogonalEdgeStyle;rounded=0;orthogonalLoop=1;jettySize=auto;html=1;" edge="1" parent="1" source="JBzAY3IJUqZfZQGEJmhK-7" target="JBzAY3IJUqZfZQGEJmhK-4">
          <mxGeometry relative="1" as="geometry" />
        </mxCell>
        <mxCell id="JBzAY3IJUqZfZQGEJmhK-7" value="Notify Output" style="rounded=1;whiteSpace=wrap;html=1;shadow=0;labelBackgroundColor=none;strokeWidth=1;fontFamily=Verdana;fontSize=12;align=center;" vertex="1" parent="1">
          <mxGeometry x="390" y="265" width="120" height="80" as="geometry" />
        </mxCell>
        <mxCell id="JBzAY3IJUqZfZQGEJmhK-14" value="" style="edgeStyle=orthogonalEdgeStyle;rounded=0;orthogonalLoop=1;jettySize=auto;html=1;" edge="1" parent="1" source="JBzAY3IJUqZfZQGEJmhK-8" target="JBzAY3IJUqZfZQGEJmhK-5">
          <mxGeometry relative="1" as="geometry" />
        </mxCell>
        <mxCell id="JBzAY3IJUqZfZQGEJmhK-8" value="Start Loop" style="shape=hexagon;perimeter=hexagonPerimeter;whiteSpace=wrap;html=1;rounded=0;shadow=0;labelBackgroundColor=none;strokeWidth=1;fontFamily=Verdana;fontSize=12;align=center;" vertex="1" parent="1">
          <mxGeometry x="390" y="625" width="120" height="80" as="geometry" />
        </mxCell>
        <mxCell id="JBzAY3IJUqZfZQGEJmhK-20" style="edgeStyle=orthogonalEdgeStyle;rounded=0;orthogonalLoop=1;jettySize=auto;html=1;" edge="1" parent="1" source="JBzAY3IJUqZfZQGEJmhK-9" target="JBzAY3IJUqZfZQGEJmhK-8">
          <mxGeometry relative="1" as="geometry">
            <Array as="points">
              <mxPoint x="640" y="665" />
            </Array>
          </mxGeometry>
        </mxCell>
        <mxCell id="JBzAY3IJUqZfZQGEJmhK-9" value="Continue?" style="shape=hexagon;perimeter=hexagonPerimeter;whiteSpace=wrap;html=1;rounded=0;shadow=0;labelBackgroundColor=none;strokeWidth=1;fontFamily=Verdana;fontSize=12;align=center;" vertex="1" parent="1">
          <mxGeometry x="580" y="285" width="120" height="80" as="geometry" />
        </mxCell>
        <mxCell id="JBzAY3IJUqZfZQGEJmhK-23" value="" style="edgeStyle=orthogonalEdgeStyle;rounded=0;orthogonalLoop=1;jettySize=auto;html=1;" edge="1" parent="1" source="JBzAY3IJUqZfZQGEJmhK-10" target="JBzAY3IJUqZfZQGEJmhK-22">
          <mxGeometry relative="1" as="geometry" />
        </mxCell>
        <mxCell id="JBzAY3IJUqZfZQGEJmhK-10" value="End?" style="shape=hexagon;perimeter=hexagonPerimeter;whiteSpace=wrap;html=1;rounded=0;shadow=0;labelBackgroundColor=none;strokeWidth=1;fontFamily=Verdana;fontSize=12;align=center;" vertex="1" parent="1">
          <mxGeometry x="780" y="145" width="120" height="80" as="geometry" />
        </mxCell>
        <mxCell id="JBzAY3IJUqZfZQGEJmhK-22" value="End" style="shape=hexagon;perimeter=hexagonPerimeter;whiteSpace=wrap;html=1;rounded=0;shadow=0;labelBackgroundColor=none;strokeWidth=1;fontFamily=Verdana;fontSize=12;align=center;" vertex="1" parent="1">
          <mxGeometry x="780" y="275" width="120" height="80" as="geometry" />
        </mxCell>
      </root>
    </mxGraphModel>
  </diagram>
</mxfile>
